<?xml version="1.0" encoding="UTF-8"?>
<svg version="1.1" xmlns="http://www.w3.org/2000/svg" width="948" height="185">
<path d="M0 0 C312.84 0 625.68 0 948 0 C948 61.05 948 122.1 948 185 C635.16 185 322.32 185 0 185 C0 123.95 0 62.9 0 0 Z " fill="#FFFFFF" transform="translate(0,0)"/>
<path d="M0 0 C8.33598833 4.54690273 12.08280402 13.85165501 14.65625 22.5703125 C18.07810577 36.49726548 19.09721202 50.23217651 19 64.5 C18.99734131 65.63571442 18.99734131 65.63571442 18.99462891 66.79437256 C18.96344293 78.20394234 18.42742518 89.47124641 17.1875 100.8203125 C16.56522317 106.78873754 16.10384417 112.67476404 17.75 118.5 C18.801875 117.88125 19.85375 117.2625 20.9375 116.625 C23.80015677 114.98420892 26.64207246 113.63015547 29.75 112.5 C31.75390625 114.0625 31.75390625 114.0625 33.75 116.5 C34.70420238 127.68163912 32.23262341 142.19603551 25.75 151.5 C23.35740361 153.96025335 20.83725556 155.95637222 17.75 157.5 C11.65768869 157.55661999 6.76422243 156.46382235 1.5390625 153.33984375 C-0.52408411 152.21670654 -0.52408411 152.21670654 -4.25 152.5 C-5.85224921 153.66267456 -5.85224921 153.66267456 -7.3125 155.25 C-12.2843597 159.722549 -18.15613514 162.24910544 -24.86328125 162.66015625 C-35.56414548 161.97783054 -44.68149366 156.43195197 -51.92578125 148.71484375 C-53.07605654 147.34423404 -54.17083987 145.9272763 -55.25 144.5 C-56.3328125 145.61375 -56.3328125 145.61375 -57.4375 146.75 C-63.22841163 152.4122247 -68.30144561 156.5861216 -76.625 157 C-82.37528465 156.85135319 -85.80825545 154.99068866 -90.25 151.5 C-91.075 150.943125 -91.9 150.38625 -92.75 149.8125 C-93.245 149.379375 -93.74 148.94625 -94.25 148.5 C-94.25 147.84 -94.25 147.18 -94.25 146.5 C-94.91 146.5 -95.57 146.5 -96.25 146.5 C-96.59804688 147.37785156 -96.59804688 147.37785156 -96.953125 148.2734375 C-99.89208044 153.3192345 -106.05683628 156.42674967 -111.1875 158.9375 C-121.43898991 160.82042672 -128.40578092 159.04187118 -137.25 153.5 C-142.00181865 150.11204886 -145.65773187 146.07197762 -149.25 141.5 C-149.90355469 142.06267578 -149.90355469 142.06267578 -150.5703125 142.63671875 C-151.81992629 143.71052107 -153.07275371 144.78059066 -154.328125 145.84765625 C-155.9525935 147.24430295 -157.54293035 148.68050163 -159.125 150.125 C-166.38357323 155.64151566 -172.76305454 157.3272621 -181.76171875 156.1796875 C-188.06911826 155.1425964 -192.78174299 153.70206315 -196.83984375 148.4375 C-203.9509825 137.58823208 -204.70741404 126.23420181 -204.5 113.5625 C-204.49484375 112.27537109 -204.4896875 110.98824219 -204.484375 109.66210938 C-204.39933046 99.45144921 -204.39933046 99.45144921 -203.25 94.5 C-203.94867188 94.29503906 -204.64734375 94.09007813 -205.3671875 93.87890625 C-206.27726562 93.60949219 -207.18734375 93.34007813 -208.125 93.0625 C-209.02992188 92.79566406 -209.93484375 92.52882813 -210.8671875 92.25390625 C-213.25 91.5 -213.25 91.5 -215.25 90.5 C-215.2902832 91.07903076 -215.33056641 91.65806152 -215.37207031 92.25463867 C-215.9569508 99.2822134 -217.32665375 105.96945765 -219 112.8125 C-219.26949463 113.91682373 -219.53898926 115.02114746 -219.81665039 116.15893555 C-223.23990759 129.84489777 -227.65330819 147.45955842 -240.25 155.5 C-245.34387748 157.9903401 -249.85426643 157.84028638 -255.25 156.5 C-261.2584394 154.18424731 -266.05253477 151.39704276 -270.25 146.5 C-270.74628906 146.97050781 -271.24257813 147.44101563 -271.75390625 147.92578125 C-278.71560916 154.30624141 -284.41929131 157.16967445 -293.99609375 156.91796875 C-299.8369829 156.16769847 -304.94136091 153.96375301 -310.25 151.5 C-311.11109375 151.11585938 -311.9721875 150.73171875 -312.859375 150.3359375 C-320.9735226 146.33332107 -325.25303629 139.85995141 -328.25 131.5 C-329.66741251 125.71264311 -329.47302436 119.89129966 -329.49023438 113.96459961 C-329.49985396 111.96781407 -329.53101161 109.9711698 -329.5625 107.97460938 C-329.61937875 93.71937247 -326.90956238 80.95858108 -317.0859375 70.1875 C-305.63347072 59.66097734 -289.03612043 54.28432288 -273.62109375 54.56640625 C-270.25 55.5 -270.25 55.5 -268.0625 58.23828125 C-267.43356573 59.41680062 -266.83050247 60.60938608 -266.25 61.8125 C-265.58035504 63.09033048 -264.90976422 64.36766567 -264.23828125 65.64453125 C-263.90908691 66.28986816 -263.57989258 66.93520508 -263.24072266 67.60009766 C-261.74724313 70.46413356 -260.0907822 73.22596649 -258.4375 76 C-252.19556351 86.55643416 -252.19556351 86.55643416 -252.4375 90.75 C-253.25 93.5 -253.25 93.5 -255.25 95.5 C-256.19549329 105.87261757 -254.7583188 116.25151242 -253.25 126.5 C-248.23199161 127.71281521 -248.23199161 127.71281521 -243.54296875 125.98828125 C-240.91005061 123.13109411 -239.19824563 120.17137737 -237.5625 116.6875 C-236.98113281 115.50542969 -236.39976562 114.32335937 -235.80078125 113.10546875 C-231.42919982 102.94181721 -231.29427509 93.63472078 -233.53369141 82.92553711 C-235.80431427 72.02773617 -235.80431427 72.02773617 -234.0625 68.0625 C-229.30721461 61.05637952 -221.85247702 52.69201639 -213.3125 50.875 C-209.32458326 51.68886056 -208.04568036 53.39726536 -205.546875 56.48046875 C-204.10101161 58.73200902 -203.16827309 60.9920749 -202.25 63.5 C-201.29738281 63.60957031 -200.34476563 63.71914062 -199.36328125 63.83203125 C-198.10902344 63.99058594 -196.85476563 64.14914063 -195.5625 64.3125 C-193.70044922 64.53873047 -193.70044922 64.53873047 -191.80078125 64.76953125 C-186.69487644 65.81992091 -184.12036931 67.33950759 -181 71.5 C-178.28169976 76.15994326 -178.06553261 80.02368534 -177.96875 85.28125 C-177.95034058 86.04997437 -177.93193115 86.81869873 -177.91296387 87.61071777 C-177.85427017 90.07373452 -177.80153693 92.5368238 -177.75 95 C-177.45726096 109.77548005 -177.45726096 109.77548005 -176.25 124.5 C-170.7489496 125.71023109 -168.06972972 125.39183783 -163.25 122.5 C-161.91666667 121.83333333 -160.58333333 121.16666667 -159.25 120.5 C-159.25 119.84 -159.25 119.18 -159.25 118.5 C-158.30640625 117.77103516 -158.30640625 117.77103516 -157.34375 117.02734375 C-154.11968691 113.13561088 -154.23102542 108.9799682 -153.75 104.0625 C-151.80687549 87.63499592 -148.23250588 74.56518536 -135.09765625 63.51953125 C-125.65593194 56.82354844 -116.38153198 56.05414383 -105.125 55.9375 C-104.02148193 55.92259521 -102.91796387 55.90769043 -101.78100586 55.89233398 C-100.7369458 55.90594971 -99.69288574 55.91956543 -98.6171875 55.93359375 C-97.21122314 55.94990845 -97.21122314 55.94990845 -95.77685547 55.96655273 C-92.47533813 56.66353973 -91.34112105 57.89150577 -89.25 60.5 C-88.09326172 62.61889648 -88.09326172 62.61889648 -87.1796875 64.87109375 C-86.84066406 65.69287109 -86.50164062 66.51464844 -86.15234375 67.36132812 C-85.81332031 68.21146484 -85.47429687 69.06160156 -85.125 69.9375 C-84.77824219 70.78376953 -84.43148437 71.63003906 -84.07421875 72.50195312 C-83.1223423 74.83058575 -82.18318425 77.16382518 -81.25 79.5 C-80.84007812 80.52222656 -80.43015625 81.54445313 -80.0078125 82.59765625 C-79.75773438 83.22542969 -79.50765625 83.85320312 -79.25 84.5 C-81.23 86.48 -81.23 86.48 -83.25 88.5 C-82.755 88.9846875 -82.26 89.469375 -81.75 89.96875 C-79.61024312 93.57958974 -80.05885983 96.94614797 -80.25 101 C-80.44619008 108.63371753 -79.56518778 115.18256711 -77.25 122.5 C-76.90718543 123.83092714 -76.57015262 125.16344054 -76.25 126.5 C-70.50895789 125.22259848 -70.50895789 125.22259848 -66.25 121.5 C-66.08134603 118.47606397 -66.06936238 115.63809418 -66.1875 112.625 C-66.49302719 96.11406142 -63.94731822 79.22138847 -52.4375 66.49609375 C-42.69819157 57.4047635 -31.38810014 54.57473609 -18.45703125 53.2578125 C-15.25 53.5 -15.25 53.5 -12.96484375 55.2265625 C-11.35921843 57.35520472 -10.1254407 59.33834135 -9 61.75 C-8.66484375 62.45640625 -8.3296875 63.1628125 -7.984375 63.890625 C-7.74203125 64.42171875 -7.4996875 64.9528125 -7.25 65.5 C-9.37412675 51.89177335 -12.03439666 38.06700307 -22.625 28.3125 C-23.429375 27.4153125 -23.429375 27.4153125 -24.25 26.5 C-23.44722861 18.65625458 -14.49014253 11.56128406 -9.375 5.9375 C-8.66077881 5.15052734 -8.66077881 5.15052734 -7.93212891 4.34765625 C-3.2551778 -0.72337284 -3.2551778 -0.72337284 0 0 Z " fill="#1E140A" transform="translate(612.25,14.5)"/>
<path d="M0 0 C2.81232513 2.01279265 2.81232513 2.01279265 5.125 1.125 C5.764375 0.650625 6.40375 0.17625 7.0625 -0.3125 C10.0625 -2.0625 10.0625 -2.0625 13.0625 -3.3125 C15.375 -2.6875 15.375 -2.6875 17.0625 -1.3125 C19.16524922 4.99574766 18.4288434 10.97955936 16.3125 17.1875 C14.6992876 22.52985921 15.60038319 25.25547235 17.93359375 30.19140625 C24.08395698 43.79030627 22.41511011 62.20936608 17.60546875 75.94140625 C15.56155042 81.18313129 12.76861711 85.46477263 9.0625 89.6875 C8.39347656 90.47640625 7.72445313 91.2653125 7.03515625 92.078125 C-1.20550307 101.07877279 -11.70831207 105.99688049 -23.80859375 106.90234375 C-35.84207919 107.28557577 -45.94476053 103.69199901 -55.12109375 95.8125 C-56.83383499 94.15834347 -58.47488287 92.56662399 -59.9375 90.6875 C-59.9375 90.0275 -59.9375 89.3675 -59.9375 88.6875 C-60.5975 88.6875 -61.2575 88.6875 -61.9375 88.6875 C-62.19273437 89.42871094 -62.44796875 90.16992188 -62.7109375 90.93359375 C-65.5680912 97.34854075 -71.57713092 102.22476133 -77.9453125 105 C-85.11145052 107.47302018 -91.12609794 106.95151547 -97.9375 103.6875 C-103.09390858 100.05368391 -106.90140359 96.74101545 -108.9375 90.6875 C-109.26895894 88.48843358 -109.52048257 86.27663296 -109.71533203 84.0612793 C-109.77414551 83.41681351 -109.83295898 82.77234772 -109.89355469 82.10835266 C-110.08475388 79.99338667 -110.2650987 77.87764664 -110.4453125 75.76171875 C-110.57630518 74.28906884 -110.70797807 72.81647929 -110.84030151 71.34394836 C-111.18572519 67.47956929 -111.52193234 63.61444225 -111.85620117 59.74908447 C-112.19933305 55.80032683 -112.5512103 51.8523496 -112.90234375 47.90429688 C-113.58927174 40.16610032 -114.2664611 32.42709235 -114.9375 24.6875 C-116.5875 24.3575 -118.2375 24.0275 -119.9375 23.6875 C-119.9035614 24.66833557 -119.8696228 25.64917114 -119.83465576 26.659729 C-119.51762422 35.89960972 -119.22219565 45.13996166 -118.94794846 54.38121414 C-118.80625605 59.13234334 -118.656941 63.88297827 -118.49023438 68.63330078 C-118.32965601 73.21698036 -118.18906349 77.80087597 -118.06235504 82.38561249 C-118.01047554 84.13533889 -117.9513766 85.88486651 -117.88497162 87.63410187 C-117.79323252 90.08308313 -117.72711304 92.53151244 -117.66699219 94.98144531 C-117.61736832 96.06793617 -117.61736832 96.06793617 -117.56674194 97.17637634 C-117.5065879 100.73484914 -117.67254154 102.36149164 -119.95440674 105.16912842 C-120.60882751 105.67019104 -121.26324829 106.17125366 -121.9375 106.6875 C-127.53306137 105.06268773 -132.48957161 102.5079123 -137.625 99.8125 C-138.47900391 99.37808594 -139.33300781 98.94367188 -140.21289062 98.49609375 C-141.03337891 98.06683594 -141.85386719 97.63757813 -142.69921875 97.1953125 C-143.44131592 96.81004395 -144.18341309 96.42477539 -144.94799805 96.02783203 C-147.30482745 94.44003065 -148.53279987 93.16666965 -149.9375 90.6875 C-150.35400391 87.78662109 -150.35400391 87.78662109 -150.4140625 84.4609375 C-150.445 83.2646875 -150.4759375 82.0684375 -150.5078125 80.8359375 C-150.52585937 79.59070313 -150.54390625 78.34546875 -150.5625 77.0625 C-150.61335259 74.59106395 -150.66785002 72.11969932 -150.7265625 69.6484375 C-150.74412598 68.55321777 -150.76168945 67.45799805 -150.77978516 66.32958984 C-150.76242652 63.7100448 -150.76242652 63.7100448 -151.9375 61.6875 C-152.06705078 63.62689453 -152.06705078 63.62689453 -152.19921875 65.60546875 C-153.30859352 80.08734471 -155.68245387 93.60440667 -165.9375 104.6875 C-169.68331425 107.59844835 -172.70432664 108.64345809 -177.4375 108.8125 C-184.42210671 106.56744784 -189.1799884 101.82251438 -193.7109375 96.203125 C-195.00427081 94.55084101 -195.00427081 94.55084101 -196.9375 92.6875 C-197.33839844 93.07421875 -197.73929688 93.4609375 -198.15234375 93.859375 C-205.67723799 100.75292891 -214.02353247 104.07783595 -224.2109375 103.97265625 C-234.34319509 102.91297888 -242.57979203 96.82609741 -249.04296875 89.3125 C-252.29953922 84.80030339 -254.18260454 79.9379767 -255.9375 74.6875 C-256.18371094 73.97207031 -256.42992187 73.25664062 -256.68359375 72.51953125 C-261.04930154 56.95352487 -257.85689527 37.91070138 -250.9375 23.6875 C-243.2880968 11.12062332 -233.94115856 3.57060667 -219.625 -0.125 C-209.87568524 -2.14130952 -198.47510131 -2.68807843 -188.9375 0.6875 C-185.67283111 3.47224408 -184.25396459 5.77932521 -183.015625 9.86328125 C-182.71269531 10.85650391 -182.40976562 11.84972656 -182.09765625 12.87304688 C-181.64712891 14.42088867 -181.64712891 14.42088867 -181.1875 16 C-180.87167969 17.02029297 -180.55585937 18.04058594 -180.23046875 19.09179688 C-178.63994667 24.41763596 -177.3527487 29.12097135 -177.9375 34.6875 C-178.453125 35.1825 -178.96875 35.6775 -179.5 36.1875 C-179.974375 36.6825 -180.44875 37.1775 -180.9375 37.6875 C-180.68373132 40.40487003 -180.68373132 40.40487003 -180.2578125 42.4296875 C-179.86279357 45.21408923 -179.93783038 47.87605143 -180 50.6875 C-180.06016073 58.08726927 -179.45733975 65.43542512 -177.9375 72.6875 C-177.2775 73.3475 -176.6175 74.0075 -175.9375 74.6875 C-175.2775 74.6875 -174.6175 74.6875 -173.9375 74.6875 C-172.91483927 68.31218947 -172.0025609 61.96753754 -171.53515625 55.52734375 C-170.28931705 38.42800968 -168.65822845 17.68393241 -155.5625 5.1875 C-150.41366986 0.98177241 -146.08990817 -0.61943574 -139.4375 -0.125 C-136.39977933 0.2941744 -133.90193579 1.02214654 -131.125 2.3125 C-128.20002514 3.84124322 -128.20002514 3.84124322 -125.875 3.625 C-123.7205382 2.64308472 -123.7205382 2.64308472 -121.125 0.75 C-114.23959637 -3.70526117 -106.9376403 -4.12607359 -98.9375 -3.3125 C-91.77793519 -1.5641055 -86.91439013 2.5600633 -82.9375 8.6875 C-79.44690652 16.27184098 -78.8037086 24.28988207 -78.4375 32.5234375 C-78.39689453 33.36162018 -78.35628906 34.19980286 -78.31445312 35.06338501 C-78.18546275 37.72960992 -78.06098412 40.39601478 -77.9375 43.0625 C-77.81385496 45.72183434 -77.68909399 48.3810895 -77.56054688 51.04019165 C-77.48082335 52.68961049 -77.40382725 54.33916432 -77.33007812 55.98886108 C-77.09135579 60.93273005 -76.60754597 65.78290308 -75.9375 70.6875 C-74.2875 70.6875 -72.6375 70.6875 -70.9375 70.6875 C-68.85808228 63.68450231 -68.45899633 56.89561272 -68.0625 49.625 C-66.99813471 33.15610458 -64.60895424 16.35895424 -52.375 4.125 C-38.20333564 -6.9970657 -15.52272162 -9.68119002 0 0 Z " fill="#1F140A" transform="translate(907.9375,63.3125)"/>
<path d="M0 0 C2.71410234 1.32768685 5.14837404 2.96342603 7.625 4.6875 C8.26695312 5.10966797 8.90890625 5.53183594 9.5703125 5.96679688 C13.81634345 8.85113962 17.42685339 11.51056488 20 16 C19.65737045 18.41615373 18.90739806 20.38669817 17.97314453 22.63964844 C16.44284061 26.35138409 15.74229221 30.2037079 14.9375 34.125 C14.77701172 34.86492188 14.61652344 35.60484375 14.45117188 36.3671875 C11.81857794 48.96980585 10.64632634 61.36376341 10.68432617 74.20629883 C10.68749353 76.43295045 10.66387557 78.65827578 10.63867188 80.88476562 C10.58270749 93.61451695 11.26642626 107.82281283 18 119 C19.88261318 121.25473097 19.88261318 121.25473097 22.875 121.5625 C29.55961525 121.42177126 36.09940927 116.25143544 41.19921875 112.29296875 C43.61087169 110.56139148 45.10023354 110.54214214 48 111 C51.78098881 116.67148322 50.63521564 125.43908312 49.46484375 132 C47.19994468 140.11898247 43.02262816 146.2858001 36 151 C25.68658852 156.20544587 14.59661319 154.43312433 4 151 C-4.41028976 147.98279033 -10.60044298 142.09401039 -14.8125 134.25 C-18.91599251 125.22784306 -20.43877254 115.8311568 -21 106 C-21.42667969 106.8765625 -21.85335937 107.753125 -22.29296875 108.65625 C-26.59458116 117.41259903 -31.11388968 126.04111015 -35.75 134.625 C-36.58180786 136.1709082 -36.58180786 136.1709082 -37.43041992 137.74804688 C-44.74886568 151.23317574 -44.74886568 151.23317574 -47.9375 153.1875 C-51.37957665 152.87458394 -52.77639811 150.50208521 -55 148 C-56.52636719 145.13525391 -56.52636719 145.13525391 -57.796875 141.9765625 C-58.51653442 140.2126416 -58.51653442 140.2126416 -59.25073242 138.41308594 C-59.75079136 137.15051062 -60.250541 135.88781276 -60.75 134.625 C-61.27281971 133.33064032 -61.79667496 132.03669847 -62.3215332 130.74316406 C-66.07396626 121.46209296 -69.73475604 112.14171132 -73.32128906 102.79541016 C-73.66256836 101.90901855 -74.00384766 101.02262695 -74.35546875 100.109375 C-74.79862427 98.94873535 -74.79862427 98.94873535 -75.25073242 97.76464844 C-75.86618311 96.00898049 -75.86618311 96.00898049 -77 95 C-77.21092285 95.57854736 -77.4218457 96.15709473 -77.63916016 96.75317383 C-86.71523474 121.50185143 -96.95584112 140.72666404 -121.859375 152.2734375 C-142.33215522 161.17842155 -164.96494497 161.08556262 -185.875 153.8125 C-196.16422873 149.56675878 -205.02301898 141.87446521 -210.375 132.0625 C-213.86372929 123.43635923 -213.22051674 113.04243594 -209.875 104.5 C-204.33513665 93.04888581 -195.89722535 83.89146516 -183.9765625 79.03125 C-174.43787656 75.72650841 -165.59300567 74.73812978 -155.5625 74.6875 C-154.62688232 74.68194092 -153.69126465 74.67638184 -152.72729492 74.6706543 C-146.70688994 74.73379974 -141.23205235 74.96734208 -136 78.2578125 C-133.98337535 81.77115077 -135.94814104 85.67624443 -136.91015625 89.36328125 C-142.14643396 106.8363083 -142.14643396 106.8363083 -147 110 C-150.3273767 110.26576491 -153.56156586 109.89828941 -156.875 109.5625 C-167.29447643 108.7767337 -178.13491527 108.55968584 -187 115 C-189.26360661 118.5153361 -189.96894432 122.1770246 -190.125 126.3125 C-189.21098278 129.24275032 -189.21098278 129.24275032 -186.25390625 130.640625 C-180.66360001 132.84721219 -174.73159954 132.47321591 -168.8125 132.4375 C-167.65685547 132.45748047 -166.50121094 132.47746094 -165.31054688 132.49804688 C-155.01208486 132.49226447 -145.2247022 130.54237675 -137 124 C-136.38898438 123.56558594 -135.77796875 123.13117188 -135.1484375 122.68359375 C-118.75725553 110.05795358 -113.50679627 84.65043941 -110.75 65.25 C-109.01704439 50.09481276 -108.00590645 34.45284212 -109.40234375 19.22265625 C-109.4688916 18.45107178 -109.53543945 17.6794873 -109.60400391 16.88452148 C-109.73968105 15.41415614 -109.89835383 13.9456719 -110.08349609 12.48071289 C-110.26953125 10.4765625 -110.26953125 10.4765625 -110 7 C-107.25922256 4.05703406 -105.80024363 3.03693893 -101.74194336 2.84960938 C-99.93415405 3.09420898 -99.93415405 3.09420898 -98.08984375 3.34375 C-97.11586388 3.47118591 -97.11586388 3.47118591 -96.12220764 3.60119629 C-94.75498318 3.78556841 -93.38923968 3.98123428 -92.02514648 4.1875 C-89.9435687 4.49909158 -87.85961822 4.76762034 -85.77148438 5.03125 C-74.3541982 6.61697704 -74.3541982 6.61697704 -71 11 C-69.79907227 13.46679688 -69.79907227 13.46679688 -68.81640625 16.21875 C-68.44902344 17.22687744 -68.08164063 18.23500488 -67.703125 19.27368164 C-67.32671875 20.3383667 -66.9503125 21.40305176 -66.5625 22.5 C-65.76323618 24.69716717 -64.96247528 26.89379038 -64.16015625 29.08984375 C-63.80574463 30.075896 -63.45133301 31.06194824 -63.08618164 32.07788086 C-61.58478203 36.11704741 -59.9165093 40.0781333 -58.23754883 44.04614258 C-57.01767262 46.95781791 -55.84927276 49.88432458 -54.69921875 52.82421875 C-54.08046875 54.40481079 -54.08046875 54.40481079 -53.44921875 56.01733398 C-51.63042271 60.67729498 -49.81267381 65.33765364 -48 70 C-47.52691406 69.04222656 -47.05382812 68.08445312 -46.56640625 67.09765625 C-42.56707021 59.03345486 -38.46693282 51.03458933 -34.22363281 43.09594727 C-32.00431887 38.93401181 -29.87471416 34.74288448 -27.8125 30.5 C-25.65448143 26.13031046 -23.21459374 22.15164802 -20.4375 18.15234375 C-18.96683082 15.95033637 -17.69465761 13.7046702 -16.4375 11.375 C-9.14626097 -2.03147176 -9.14626097 -2.03147176 0 0 Z " fill="#1E140A" transform="translate(229,13)"/>
<path d="M0 0 C3 1 3 1 4.8125 3.375 C7.7809941 6.93719292 10.54737962 8.76540153 15.24609375 9.21484375 C18.96224293 9.26976221 22.45037404 9.20129263 26 8 C26.6837045 6.67532254 27.34964186 5.34136367 28 4 C30.125 2.75 30.125 2.75 32 2 C38.89786422 8.05322778 41.61357481 19.13104257 42.3125 27.9375 C42.04618716 35.4978257 39.38962429 41.62526843 34.23828125 47.140625 C28.67093597 51.7655052 21.15733905 55.49093808 13.9375 56.375 C7.8137971 55.7917902 2.67654354 53.52245682 -1.83203125 49.2734375 C-8.50291153 41.06572151 -11.55796293 30.28134456 -10.8515625 19.796875 C-9.72077352 12.811112 -5.96582596 6.76167168 -2 1 C-1.34 0.67 -0.68 0.34 0 0 Z " fill="#FEFEFE" transform="translate(870,91)"/>
<path d="M0 0 C0.77085937 0.00515625 1.54171875 0.0103125 2.3359375 0.015625 C7.96997768 0.09497768 7.96997768 0.09497768 9.125 1.25 C10.09447391 13.61079235 6.59625644 27.02658072 -1.25 36.6875 C-4.22486825 39.84553424 -6.41208633 41.79460065 -10.875 42.25 C-16.5049835 41.11720654 -20.91410747 38.39512009 -24.875 34.25 C-27.74950138 29.45566741 -28.33659847 24.95527588 -27.44140625 19.48046875 C-25.6368069 12.37408096 -22.08600958 7.21522081 -15.875 3.25 C-10.38865644 0.39548176 -6.13350678 -0.16920019 0 0 Z " fill="#FFFFFF" transform="translate(596.875,97.75)"/>
<path d="M0 0 C0.75410156 0.00322266 1.50820313 0.00644531 2.28515625 0.00976562 C3.06246094 0.01814453 3.83976562 0.02652344 4.640625 0.03515625 C5.43339844 0.03966797 6.22617187 0.04417969 7.04296875 0.04882812 C8.99222008 0.0605706 10.94143238 0.07850479 12.890625 0.09765625 C12.2925 0.36578125 11.694375 0.63390625 11.078125 0.91015625 C8.06009435 2.52858623 8.06009435 2.52858623 5.890625 5.09765625 C5.56093008 7.88401598 5.37852932 10.49371684 5.328125 13.28515625 C5.11088667 22.40112041 4.20991807 31.53840246 -2.359375 38.47265625 C-6.98215384 41.20429829 -11.34046368 40.35831814 -16.421875 39.41015625 C-20.109375 38.09765625 -20.109375 38.09765625 -21.32421875 35.94140625 C-23.85722421 26.7671377 -22.70768619 16.29427863 -18.484375 7.84765625 C-13.79414948 2.41686881 -7.11618332 -0.05391048 0 0 Z " fill="#FFFFFF" transform="translate(506.109375,100.90234375)"/>
<path d="M0 0 C0 0.33 0 0.66 0 1 C-0.84304688 1.06058594 -1.68609375 1.12117188 -2.5546875 1.18359375 C-3.65039062 1.26738281 -4.74609375 1.35117188 -5.875 1.4375 C-6.96554687 1.51871094 -8.05609375 1.59992188 -9.1796875 1.68359375 C-11.94728971 1.83001703 -11.94728971 1.83001703 -14 3 C-14.99011429 5.97034287 -15.30436931 8.69894015 -15.59545898 11.80224609 C-17.39384708 30.53056666 -17.39384708 30.53056666 -24 36 C-29.19518826 37.45465271 -33.05226606 36.74039077 -38.08203125 35.27734375 C-40.97010265 33.35392349 -41.22491228 31.31784998 -42 28 C-42.84369712 20.84189602 -42.94182642 14.54379329 -38.46484375 8.640625 C-28.42117375 -2.6082854 -13.94820464 -4.21077876 0 0 Z " fill="#FFFFFF" transform="translate(721,97)"/>
<path d="M0 0 C1.75570313 0.01353516 1.75570313 0.01353516 3.546875 0.02734375 C4.43890625 0.03894531 5.3309375 0.05054687 6.25 0.0625 C6.25 3.0625 6.25 3.0625 4.25 6.0625 C4.05311393 7.91041637 3.93795961 9.76769143 3.875 11.625 C3.31979755 19.67056533 1.08505791 27.22744209 -4.75 33.0625 C-7.73257937 35.29943452 -10.95096304 35.60467106 -14.65234375 35.5078125 C-18.64208758 34.66082778 -21.20890787 32.13855889 -23.75 29.0625 C-25.87495286 24.72020503 -26.2458678 20.85588877 -25.75 16.0625 C-23.40895955 9.31777266 -19.93044492 5.81499006 -13.6875 2.375 C-8.94146216 0.2544299 -5.2167695 -0.0521677 0 0 Z " fill="#FFFFFF" transform="translate(334.75,103.9375)"/>
</svg>
